<?xml version="1.0" encoding="UTF-8"?>
<!DOCTYPE svg PUBLIC "-//W3C//DTD SVG 1.1//EN" "http://www.w3.org/Graphics/SVG/1.1/DTD/svg11.dtd">
<!-- Creator: CorelDRAW 2019 (64-Bit) -->
<svg xmlns="http://www.w3.org/2000/svg" xml:space="preserve" width="138.887mm" height="141.867mm" version="1.1" style="shape-rendering:geometricPrecision; text-rendering:geometricPrecision; image-rendering:optimizeQuality; fill-rule:evenodd; clip-rule:evenodd"
viewBox="0 0 107.03 109.32"
 xmlns:xlink="http://www.w3.org/1999/xlink">
 <defs>
  <style type="text/css">
   <![CDATA[
    .fil0 {fill:White}
   ]]>
  </style>
 </defs>
 <g id="Layer_x0020_1">
  <metadata id="CorelCorpID_0Corel-Layer"/>
  <g id="_1535143549424">
   <path class="fil0" d="M47.67 14.73l0 35.44c-7.46,0 -13.68,4.47 -16.35,11.41 -0.88,2.27 -1.16,4.97 -1.16,8.03l0 16.23c0,0.9 14.09,17.25 14.09,18.15l0 5.34 7.05 0 0 -7.9c0,-0.47 -6.6,-8.47 -7.02,-9l-6.18 -7.7c-0.39,-0.45 -0.68,-0.66 -0.68,-1.45l0 -16.87c0,-4.25 4.63,-9.18 10.25,-9.18l0 24.34 7.05 0 0 -66.19c0,-3.48 4.48,-4.67 6.32,-1.84 0.96,1.47 0.51,11.45 0.51,13.58 0,6.26 0,12.53 0,18.79 1.58,0.37 10.31,2.96 11.53,2.99 0.39,-1.69 1.71,-5.49 1.71,-6.83 -1.42,-0.03 -4.6,-1.36 -6.19,-1.49 0,-7.54 0,-15.09 0,-22.63 0,-5.75 -0.59,-8.79 -5.38,-11.71 -3.26,-1.99 -7.99,-1.73 -11.1,0.57 -0.29,0.22 -0.37,0.32 -0.7,0.58 -2.04,1.58 -3.75,4.7 -3.75,7.35z"/>
   <path class="fil0" d="M93.15 54.45c0.78,0.37 2.59,0.79 3.46,1.02 1.58,0.43 3.16,0.51 3.16,1.33l0 30.32c0,0.49 -2.12,3.11 -2.53,3.66 -0.9,1.21 -7.93,10.32 -7.93,10.86l0 7.69 7.26 0c0,-7.01 -0.67,-5.02 2.41,-9.12l6.77 -9.03c0.25,-0.33 1.28,-1.54 1.28,-1.92l0 -37.79c0,-0.86 -1.84,-0.97 -2.64,-1.21 -1.09,-0.32 -2.21,-0.62 -3.17,-0.89 -1.11,-0.3 -1.9,-0.53 -3.03,-0.81 -1.18,-0.3 -2.02,-0.73 -3.33,-0.73 -0.26,1.11 -0.58,2.14 -0.86,3.2 -0.26,0.98 -0.77,2.43 -0.85,3.42z"/>
   <polygon class="fil0" points="13.88,12.76 18.79,17.77 23.28,13.4 23.33,36.3 30.37,36.3 30.37,13.67 34.7,17.88 39.82,12.86 26.85,0 26.74,0 "/>
   <path class="fil0" d="M9.45 62.35c-0.81,-0.22 -3.97,-3.5 -4.48,-4.27l-4.96 4.86 12.92 13.03 13.03 -12.92 -5.02 -4.91 -4.38 4.27 -0.05 -22.68 -7.05 0 0 22.63z"/>
   <path class="fil0" d="M79.7 50.82l6.83 1.92c0.1,-1.24 1.71,-5.77 1.71,-6.62 0,-0.42 -1.01,-0.54 -1.46,-0.67 -0.52,-0.14 -1.06,-0.27 -1.69,-0.44 -0.87,-0.24 -2.68,-0.65 -3.46,-1.02 -0.34,0.71 -1.85,5.95 -1.92,6.83z"/>
   <polygon class="fil0" points="9.45,32.88 16.49,32.88 16.49,25.84 9.45,25.84 "/>
   <polygon class="fil0" points="23.33,50.18 30.37,50.18 30.37,43.13 23.33,43.13 "/>
  </g>
 </g>
</svg>
